<svg width="16" height="16" viewBox="0 0 16 16" fill="none" xmlns="http://www.w3.org/2000/svg">
<path fill-rule="evenodd" clip-rule="evenodd" d="M5.99935 2.66666C4.89478 2.66666 3.99935 3.56209 3.99935 4.66666C3.99935 5.77123 4.89478 6.66666 5.99935 6.66666C7.10392 6.66666 7.99935 5.77123 7.99935 4.66666C7.99935 3.56209 7.10392 2.66666 5.99935 2.66666ZM2.66602 4.66666C2.66602 2.82571 4.1584 1.33333 5.99935 1.33333C7.8403 1.33333 9.33268 2.82571 9.33268 4.66666C9.33268 6.50761 7.8403 8 5.99935 8C4.1584 8 2.66602 6.50761 2.66602 4.66666ZM12.666 4.66666C13.0342 4.66666 13.3327 4.96514 13.3327 5.33333V6.66666H14.666C15.0342 6.66666 15.3327 6.96514 15.3327 7.33333C15.3327 7.70152 15.0342 8 14.666 8H13.3327V9.33333C13.3327 9.70152 13.0342 10 12.666 10C12.2978 10 11.9993 9.70152 11.9993 9.33333V8H10.666C10.2978 8 9.99935 7.70152 9.99935 7.33333C9.99935 6.96514 10.2978 6.66666 10.666 6.66666H11.9993V5.33333C11.9993 4.96514 12.2978 4.66666 12.666 4.66666ZM1.64233 10.3096C2.26745 9.68452 3.11529 9.33333 3.99935 9.33333H7.99935C8.8834 9.33333 9.73125 9.68452 10.3564 10.3096C10.9815 10.9348 11.3327 11.7826 11.3327 12.6667V14C11.3327 14.3682 11.0342 14.6667 10.666 14.6667C10.2978 14.6667 9.99935 14.3682 9.99935 14V12.6667C9.99935 12.1362 9.78863 11.6275 9.41356 11.2524C9.03849 10.8774 8.52978 10.6667 7.99935 10.6667H3.99935C3.46892 10.6667 2.96021 10.8774 2.58514 11.2524C2.21006 11.6275 1.99935 12.1362 1.99935 12.6667V14C1.99935 14.3682 1.70087 14.6667 1.33268 14.6667C0.964492 14.6667 0.666016 14.3682 0.666016 14V12.6667C0.666016 11.7826 1.01721 10.9348 1.64233 10.3096Z" fill="#F7F5F4"/>
</svg>
