<svg width="14" height="14" viewBox="0 0 14 14" fill="none" xmlns="http://www.w3.org/2000/svg">
<path d="M12 1H2C1.44772 1 1 1.44772 1 2V12C1 12.5523 1.44772 13 2 13H12C12.5523 13 13 12.5523 13 12V2C13 1.44772 12.5523 1 12 1Z" stroke="black" stroke-width="1.33333" stroke-linecap="round" stroke-linejoin="round"/>
<path d="M6.5 4.6H7.7V5.4H7.3V6.2C8.04146 6.2 8.51138 6.20976 8.70976 6.22927C8.98293 6.25854 9.15691 6.32846 9.23171 6.43902C9.27724 6.52032 9.3 6.70732 9.3 7V11H8.5V7.4C8.5 7.20163 8.43333 7.08618 8.3 7.05366C8.16667 7.01789 7.63333 7 6.7 7C6.03333 7 5.63333 7.01789 5.5 7.05366C5.36667 7.08618 5.3 7.20163 5.3 7.4V11H4.5V7C4.5 6.70732 4.52276 6.52032 4.56829 6.43902C4.64309 6.32846 4.81707 6.25854 5.09024 6.22927C5.28862 6.20976 5.75854 6.2 6.5 6.2V5.4C5.67724 5.39675 5.19431 5.38699 5.05122 5.37073C4.79756 5.34472 4.63659 5.2748 4.56829 5.16098C4.52276 5.07967 4.5 4.89268 4.5 4.6V3H5.3V4.2C5.3 4.34634 5.32276 4.44065 5.36829 4.48293C5.44309 4.53496 5.55041 4.57073 5.69024 4.59024C5.8561 4.5935 6.12602 4.59675 6.5 4.6Z" fill="black" stroke="black" stroke-width="0.5"/>
</svg>
