<svg width="14" height="14" viewBox="0 0 14 14" fill="none" xmlns="http://www.w3.org/2000/svg">
<path d="M12 1H2C1.44772 1 1 1.44772 1 2V12C1 12.5523 1.44772 13 2 13H12C12.5523 13 13 12.5523 13 12V2C13 1.44772 12.5523 1 12 1Z" stroke="black" stroke-width="1.33333" stroke-linecap="round" stroke-linejoin="round"/>
<path d="M6.00016 4.66669H3.3335V9.33335H5.8335M3.3335 7.00002H5.8335M7.66683 5.33335V9.33335V7.16669C7.66683 6.76886 7.82486 6.38733 8.10617 6.10603C8.38747 5.82472 8.769 5.66669 9.16683 5.66669C9.56465 5.66669 9.94619 5.82472 10.2275 6.10603C10.5088 6.38733 10.6668 6.76886 10.6668 7.16669V9.33335" stroke="black" stroke-width="1.33333" stroke-linecap="round" stroke-linejoin="round"/>
</svg>
