<svg width="16" height="16" viewBox="0 0 16 16" fill="none" xmlns="http://www.w3.org/2000/svg">
<path fill-rule="evenodd" clip-rule="evenodd" d="M1.33398 3.99999C1.33398 3.63181 1.63246 3.33333 2.00065 3.33333H14.0007C14.3688 3.33333 14.6673 3.63181 14.6673 3.99999C14.6673 4.36818 14.3688 4.66666 14.0007 4.66666H2.00065C1.63246 4.66666 1.33398 4.36818 1.33398 3.99999ZM4.00065 8C4.00065 7.63181 4.29913 7.33333 4.66732 7.33333H11.334C11.7022 7.33333 12.0007 7.63181 12.0007 8C12.0007 8.36819 11.7022 8.66666 11.334 8.66666H4.66732C4.29913 8.66666 4.00065 8.36819 4.00065 8ZM6.00065 12C6.00065 11.6318 6.29913 11.3333 6.66732 11.3333H9.33398C9.70218 11.3333 10.0007 11.6318 10.0007 12C10.0007 12.3682 9.70218 12.6667 9.33398 12.6667H6.66732C6.29913 12.6667 6.00065 12.3682 6.00065 12Z" fill="#09090B"/>
</svg>
