<svg width="14" height="14" viewBox="0 0 14 14" fill="none" xmlns="http://www.w3.org/2000/svg">
<g clip-path="url(#clip0_4295_5451)">
<path fill-rule="evenodd" clip-rule="evenodd" d="M4.0835 1.74986C3.76133 1.74986 3.50016 2.01102 3.50016 2.33319V4.66652C3.50016 4.98869 3.76133 5.24986 4.0835 5.24986H9.91683C10.239 5.24986 10.5002 4.98869 10.5002 4.66652V2.33319C10.5002 2.01102 10.239 1.74986 9.91683 1.74986H4.0835ZM2.3335 2.33319C2.3335 1.36669 3.117 0.583191 4.0835 0.583191H9.91683C10.8833 0.583191 11.6668 1.36669 11.6668 2.33319V4.66652C11.6668 5.63302 10.8833 6.41652 9.91683 6.41652H4.0835C3.117 6.41652 2.3335 5.63302 2.3335 4.66652V2.33319ZM2.3335 8.74986C2.01133 8.74986 1.75016 9.01102 1.75016 9.33319V11.6665C1.75016 11.9887 2.01133 12.2499 2.3335 12.2499H11.6668C11.989 12.2499 12.2502 11.9887 12.2502 11.6665V9.33319C12.2502 9.01102 11.989 8.74986 11.6668 8.74986H2.3335ZM0.583496 9.33319C0.583496 8.36669 1.367 7.58319 2.3335 7.58319H11.6668C12.6333 7.58319 13.4168 8.36669 13.4168 9.33319V11.6665C13.4168 12.633 12.6333 13.4165 11.6668 13.4165H2.3335C1.367 13.4165 0.583496 12.633 0.583496 11.6665V9.33319ZM2.91683 10.4999C2.91683 10.1777 3.178 9.91652 3.50016 9.91652H4.66683C4.989 9.91652 5.25016 10.1777 5.25016 10.4999C5.25016 10.822 4.989 11.0832 4.66683 11.0832H3.50016C3.178 11.0832 2.91683 10.822 2.91683 10.4999ZM6.41683 10.4999C6.41683 10.1777 6.678 9.91652 7.00016 9.91652H10.5002C10.8223 9.91652 11.0835 10.1777 11.0835 10.4999C11.0835 10.822 10.8223 11.0832 10.5002 11.0832H7.00016C6.678 11.0832 6.41683 10.822 6.41683 10.4999Z" fill="#09090B"/>
</g>
<defs>
<clipPath id="clip0_4295_5451">
<rect width="14" height="14" fill="white"/>
</clipPath>
</defs>
</svg>
