<svg width="14" height="14" viewBox="0 0 14 14" fill="none" xmlns="http://www.w3.org/2000/svg">
<path d="M5 11V2.33333L13 1V9.66667" stroke="black" stroke-width="1.33333" stroke-linecap="round" stroke-linejoin="round"/>
<path d="M3 13C4.10457 13 5 12.1046 5 11C5 9.89543 4.10457 9 3 9C1.89543 9 1 9.89543 1 11C1 12.1046 1.89543 13 3 13Z" stroke="black" stroke-width="1.33333" stroke-linecap="round" stroke-linejoin="round"/>
<path d="M11 11.6667C12.1046 11.6667 13 10.7713 13 9.66669C13 8.56212 12.1046 7.66669 11 7.66669C9.89543 7.66669 9 8.56212 9 9.66669C9 10.7713 9.89543 11.6667 11 11.6667Z" stroke="black" stroke-width="1.33333" stroke-linecap="round" stroke-linejoin="round"/>
</svg>
