<svg width="12" height="12" viewBox="0 0 12 12" fill="none" xmlns="http://www.w3.org/2000/svg">
<path fill-rule="evenodd" clip-rule="evenodd" d="M4.43663 0.266735C4.98058 0.443576 5.50455 0.676846 5.99996 0.962735C6.49537 0.676846 7.01933 0.443576 7.56329 0.266735C8.92596 -0.163931 10.2833 -0.0872648 11.1853 0.814735C12.0873 1.71674 12.164 3.07473 11.7333 4.43674C11.5565 4.98069 11.3232 5.50466 11.0373 6.00007C11.3413 6.5354 11.574 7.06007 11.7333 7.5634C12.164 8.9254 12.0873 10.2834 11.1853 11.1854C10.2833 12.0874 8.92529 12.1641 7.56329 11.7334C7.01933 11.5566 6.49537 11.3233 5.99996 11.0374C5.50455 11.3233 4.98058 11.5566 4.43663 11.7334C3.07463 12.1634 1.71663 12.0874 0.814626 11.1854C-0.087374 10.2834 -0.163374 8.9254 0.266626 7.5634C0.425959 7.0594 0.658626 6.5354 0.962626 6.00007C0.676736 5.50466 0.443467 4.98069 0.266626 4.43674C-0.163374 3.07407 -0.0867073 1.71674 0.814626 0.814735C1.71663 -0.0872648 3.07463 -0.163931 4.43663 0.266735ZM10.1933 7.27274C9.79996 7.7914 9.34396 8.31274 8.82863 8.82874C8.34126 9.31792 7.82141 9.77362 7.27263 10.1927C7.51218 10.3021 7.74307 10.3918 7.96529 10.4621C9.09729 10.8194 9.84263 10.6421 10.2426 10.2421C10.6426 9.84274 10.82 9.09674 10.4626 7.9654C10.3873 7.72894 10.2973 7.49739 10.1933 7.27207V7.27274ZM1.80663 7.27274C1.70285 7.49785 1.61312 7.72919 1.53796 7.9654C1.18063 9.0974 1.35796 9.84274 1.75796 10.2427C2.15729 10.6427 2.90329 10.8194 4.03463 10.4621C4.25685 10.3918 4.48796 10.3021 4.72796 10.1927C4.17917 9.77362 3.65932 9.31792 3.17196 8.82874C2.68255 8.3414 2.22595 7.82155 1.80663 7.27274ZM5.99996 2.5334C5.32411 3.00127 4.69298 3.53064 4.11463 4.11474C3.53053 4.69309 3.00116 5.32422 2.53329 6.00007C3.00074 6.67586 3.52966 7.30699 4.11329 7.8854C4.75529 8.5274 5.39063 9.05207 5.99996 9.46674C6.6758 8.99887 7.30694 8.4695 7.88529 7.8854C8.46916 7.30702 8.9983 6.67589 9.46596 6.00007C8.99943 5.32358 8.47045 4.69237 7.88596 4.11474C7.30739 3.5306 6.67604 3.00124 5.99996 2.5334ZM5.99996 5.00007C6.26518 5.00007 6.51953 5.10543 6.70707 5.29296C6.8946 5.4805 6.99996 5.73485 6.99996 6.00007C6.99996 6.26529 6.8946 6.51964 6.70707 6.70718C6.51953 6.89471 6.26518 7.00007 5.99996 7.00007C5.73474 7.00007 5.48039 6.89471 5.29285 6.70718C5.10532 6.51964 4.99996 6.26529 4.99996 6.00007C4.99996 5.73485 5.10532 5.4805 5.29285 5.29296C5.48039 5.10543 5.73474 5.00007 5.99996 5.00007ZM1.75729 1.7574C1.35729 2.1574 1.18063 2.90274 1.53796 4.03474C1.60818 4.25696 1.69796 4.48807 1.80729 4.72807C2.20063 4.20807 2.65596 3.6874 3.17196 3.1714C3.65911 2.68224 4.17873 2.22654 4.72729 1.8074C4.50219 1.7034 4.27086 1.61345 4.03463 1.53807C2.90329 1.18074 2.15729 1.35807 1.75729 1.7574ZM7.96529 1.53807C7.74307 1.60829 7.51218 1.69807 7.27263 1.8074C7.79129 2.20074 8.31263 2.65607 8.82863 3.1714C9.31804 3.65874 9.77397 4.17859 10.1933 4.7274C10.3026 4.48785 10.3922 4.25696 10.462 4.03474C10.82 2.90274 10.6426 2.1574 10.2426 1.7574C9.84263 1.3574 9.09729 1.18074 7.96529 1.53807Z" fill="black"/>
</svg>
