<svg width="20" height="20" viewBox="0 0 20 20" fill="none" xmlns="http://www.w3.org/2000/svg">
<path fill-rule="evenodd" clip-rule="evenodd" d="M9.16609 3.33328C5.9444 3.33328 3.3327 5.94498 3.3327 9.16667C3.3327 12.3884 5.9444 15.0001 9.16609 15.0001C12.3878 15.0001 14.9995 12.3884 14.9995 9.16667C14.9995 5.94498 12.3878 3.33328 9.16609 3.33328ZM1.66602 9.16667C1.66602 5.02449 5.02391 1.6666 9.16609 1.6666C13.3083 1.6666 16.6662 5.02449 16.6662 9.16667C16.6662 10.9375 16.0524 12.565 15.0261 13.8481L18.0887 16.9108C18.4142 17.2362 18.4142 17.7639 18.0887 18.0893C17.7633 18.4147 17.2356 18.4147 16.9102 18.0893L13.8475 15.0266C12.5645 16.053 10.9369 16.6667 9.16609 16.6667C5.02391 16.6667 1.66602 13.3088 1.66602 9.16667Z" fill="#71717A"/>
</svg>
