<svg width="18" height="19" viewBox="0 0 18 19" fill="none" xmlns="http://www.w3.org/2000/svg">
<path d="M6.75 3.125V15.875M12 11.75L9.75 9.5L12 7.25" stroke="#71717A" stroke-width="1.5" stroke-linecap="round" stroke-linejoin="round"/>
<path d="M2.25 7.55C2.25 5.87 2.25 5.03 2.577 4.388C2.86462 3.82354 3.32354 3.36462 3.888 3.077C4.53 2.75 5.37 2.75 7.05 2.75H10.95C12.63 2.75 13.47 2.75 14.112 3.077C14.6765 3.36462 15.1354 3.82354 15.423 4.388C15.75 5.03 15.75 5.87 15.75 7.55V11.45C15.75 13.13 15.75 13.97 15.423 14.612C15.1354 15.1765 14.6765 15.6354 14.112 15.923C13.47 16.25 12.63 16.25 10.95 16.25H7.05C5.37 16.25 4.53 16.25 3.888 15.923C3.32354 15.6354 2.86462 15.1765 2.577 14.612C2.25 13.97 2.25 13.13 2.25 11.45V7.55Z" stroke="#71717A" stroke-width="1.5" stroke-linecap="round" stroke-linejoin="round"/>
</svg>
