<svg width="15" height="15" viewBox="0 0 15 15" fill="none" xmlns="http://www.w3.org/2000/svg">
<path d="M10.9999 2.66665C10.9999 2.66665 11.7499 4.16665 10.9999 5.99998M13.3333 1.33331C13.3333 1.33331 14.8333 4.03331 13.3333 7.33331M6.33325 6.66665C6.63967 6.66665 6.94309 6.60629 7.22618 6.48903C7.50927 6.37177 7.7665 6.1999 7.98317 5.98323C8.19984 5.76656 8.37171 5.50933 8.48897 5.22624C8.60623 4.94315 8.66659 4.63973 8.66659 4.33331C8.66659 4.0269 8.60623 3.72348 8.48897 3.44038C8.37171 3.15729 8.19984 2.90007 7.98317 2.6834C7.7665 2.46673 7.50927 2.29486 7.22618 2.17759C6.94309 2.06033 6.63967 1.99998 6.33325 1.99998C5.71441 1.99998 5.12092 2.24581 4.68334 2.6834C4.24575 3.12098 3.99992 3.71447 3.99992 4.33331C3.99992 4.95215 4.24575 5.54564 4.68334 5.98323C5.12092 6.42081 5.71441 6.66665 6.33325 6.66665ZM1.33325 13.6V14H11.3333V13.6C11.3333 12.1066 11.3333 11.36 11.0426 10.7893C10.7869 10.2876 10.379 9.87964 9.87725 9.62398C9.30659 9.33331 8.55992 9.33331 7.06659 9.33331H5.59992C4.10659 9.33331 3.35992 9.33331 2.78925 9.62398C2.28751 9.87964 1.87958 10.2876 1.62392 10.7893C1.33325 11.36 1.33325 12.1066 1.33325 13.6Z" stroke="black" stroke-width="1.33333" stroke-linecap="round" stroke-linejoin="round"/>
</svg>
