<svg width="16" height="15" viewBox="0 0 16 15" fill="none" xmlns="http://www.w3.org/2000/svg">
<path d="M12.0002 4.0002C12.4422 4.0002 12.8661 3.82461 13.1787 3.51205C13.4912 3.19949 13.6668 2.77556 13.6668 2.33354C13.6668 1.89151 13.4912 1.46759 13.1787 1.15503C12.8661 0.842465 12.4422 0.66687 12.0002 0.66687C11.5581 0.66687 11.1342 0.842465 10.8217 1.15503C10.5091 1.46759 10.3335 1.89151 10.3335 2.33354C10.3335 2.77556 10.5091 3.19949 10.8217 3.51205C11.1342 3.82461 11.5581 4.0002 12.0002 4.0002Z" stroke="black" stroke-width="1.33333"/>
<path d="M4.00005 4.5902L6.66772 3.6662L10.3334 5.41587L6.66772 8.1482L10.3334 10.5615L8.00272 13.6662M11.7734 6.21453L12.6674 6.70087L14.6667 4.8222M5.61638 9.5152L4.62638 10.8192L1.33472 12.6659" stroke="black" stroke-width="1.33333" stroke-linecap="round" stroke-linejoin="round"/>
</svg>
