<svg width="13" height="14" viewBox="0 0 13 14" fill="none" xmlns="http://www.w3.org/2000/svg">
<path d="M4.47449 9.08184C3.75046 9.42516 2.62578 10.5375 2.38418 11.347C2.32011 11.5563 2.29724 11.7744 2.31812 11.9949C2.37053 12.5221 2.92534 13.069 3.46449 12.958C3.88477 12.8746 4.21414 12.5876 4.45578 12.2399C4.81506 11.7264 6.2095 8.26277 4.47449 9.08184ZM8.44034 13.1735C8.67435 12.8452 8.71634 12.4372 8.66516 12.0483C8.58742 11.4627 7.33862 8.19493 6.66524 9.86168C6.39035 10.5575 6.32142 12.0422 6.6711 12.7501C6.76194 12.935 6.88355 13.0985 7.03721 13.2374C7.40651 13.5658 8.13917 13.5871 8.44034 13.1735ZM3.5937 7.05059C2.89035 6.81369 1.42272 6.83344 0.743857 7.21323C0.566129 7.31432 0.407808 7.4417 0.280506 7.60368C-0.023371 7.98637 -0.00484337 8.71243 0.424659 8.98267C0.760666 9.19734 1.16337 9.21492 1.54574 9.14255C2.12092 9.03462 5.2793 7.6197 3.5937 7.05059ZM11.5058 5.64052C11.8612 5.41968 12.1686 5.11287 12.2813 4.69561C12.4231 4.16696 11.908 3.57615 11.388 3.49733C11.1672 3.46225 10.946 3.47541 10.7372 3.52325C9.91603 3.71648 8.73839 4.77437 8.35354 5.47514C7.4281 7.15776 10.9656 5.97083 11.5058 5.64052ZM4.05189 5.74944C5.066 5.8596 4.74459 4.99526 4.40843 4.44164C4.00167 3.77447 3.41362 2.97236 2.71285 2.58752C2.27189 2.34627 1.6618 2.41062 1.30892 2.76651C0.877269 3.19927 1.00926 3.83609 1.33536 4.29264C1.82773 4.97874 3.25591 5.66214 4.05189 5.74944ZM7.9579 2.13104C7.97616 1.73606 7.90048 1.33375 7.63741 1.02872C7.30323 0.639742 6.57232 0.72711 6.2336 1.08487C6.09147 1.23726 5.98544 1.41137 5.90909 1.60465C5.62537 2.34164 5.81816 3.81433 6.15548 4.48758C6.97077 6.09075 7.9289 2.72288 7.9579 2.13104Z" fill="#E16448"/>
</svg>
